<?xml version="1.0" standalone="no"?>
<!DOCTYPE svg PUBLIC "-//W3C//DTD SVG 20010904//EN"
 "http://www.w3.org/TR/2001/REC-SVG-20010904/DTD/svg10.dtd">
<svg version="1.0" xmlns="http://www.w3.org/2000/svg"
 width="700.000000pt" height="700.000000pt" viewBox="0 0 700.000000 700.000000"
 preserveAspectRatio="xMidYMid meet">
<metadata>
Created by potrace 1.14, written by Peter Selinger 2001-2017
</metadata>
<g transform="translate(0.000000,700.000000) scale(0.100000,-0.100000)"
fill="#000000" stroke="none">
<path d="M1710 5210 c-371 -46 -648 -179 -819 -395 -263 -331 -269 -789 -14
-1122 103 -135 212 -220 397 -309 148 -71 294 -118 641 -208 525 -136 595
-164 694 -272 34 -37 56 -72 66 -106 30 -103 13 -227 -46 -319 -40 -63 -135
-151 -195 -182 -219 -111 -592 -114 -809 -7 -179 88 -296 251 -357 496 -12 49
-22 90 -22 91 -2 3 -677 -65 -681 -69 -6 -6 25 -170 50 -266 110 -414 372
-704 753 -833 210 -71 403 -94 721 -86 304 8 485 41 683 127 345 149 586 480
616 849 38 463 -155 819 -553 1018 -159 80 -338 138 -745 242 -481 122 -632
192 -702 324 -31 58 -31 174 0 233 43 83 156 155 307 195 107 29 382 32 489 6
219 -55 346 -192 397 -428 l11 -49 46 0 c79 0 616 21 637 25 20 4 21 9 13 92
-31 353 -234 654 -546 812 -96 48 -255 98 -388 122 -135 24 -511 35 -644 19z"/>
<path d="M3740 4865 l0 -295 520 0 520 0 0 -1445 0 -1445 350 0 350 0 0 1445
0 1445 515 0 515 0 0 295 0 295 -1385 0 -1385 0 0 -295z"/>
</g>
</svg>
